<svg width="273" height="206" viewBox="0 0 273 206" fill="none" xmlns="http://www.w3.org/2000/svg">
<path d="M193.118 179.646V183.798H230.394V179.646H193.118Z" fill="#A15842"/>
<path d="M236.533 198.806L226.838 141.096H196.674L186.98 198.806C186.936 199.079 186.952 199.359 187.026 199.626C187.101 199.892 187.233 200.139 187.412 200.35C187.592 200.561 187.815 200.73 188.066 200.847C188.317 200.963 188.59 201.024 188.867 201.024C189.304 201.025 189.728 200.876 190.069 200.602C190.409 200.328 190.645 199.945 190.738 199.518L203.432 141.084H220.078L232.772 199.518C232.865 199.945 233.102 200.328 233.443 200.601C233.784 200.875 234.208 201.024 234.645 201.024C234.922 201.024 235.195 200.963 235.446 200.847C235.698 200.73 235.921 200.561 236.1 200.35C236.28 200.139 236.411 199.892 236.486 199.626C236.56 199.359 236.576 199.079 236.533 198.806Z" fill="#A15842"/>
<path d="M223.999 179.646V183.798H261.275V179.646H223.999Z" fill="#CA7358"/>
<path d="M267.413 198.806L257.719 141.096H227.555L217.858 198.806C217.814 199.08 217.831 199.359 217.906 199.626C217.981 199.892 218.113 200.14 218.292 200.35C218.472 200.561 218.695 200.73 218.946 200.847C219.198 200.963 219.471 201.023 219.748 201.024C220.185 201.025 220.609 200.876 220.949 200.602C221.29 200.328 221.526 199.945 221.618 199.518L234.312 141.084H250.949L263.643 199.518C263.736 199.945 263.973 200.328 264.314 200.601C264.654 200.875 265.079 201.024 265.516 201.024C265.793 201.025 266.068 200.966 266.32 200.85C266.573 200.734 266.797 200.565 266.978 200.354C267.158 200.143 267.291 199.895 267.366 199.628C267.441 199.361 267.457 199.08 267.413 198.806Z" fill="#CA7358"/>
<path d="M236.947 131.793L240.643 117.332H216.135C211.331 117.332 206.664 118.93 202.868 121.875C199.073 124.82 196.365 128.944 195.171 133.597L192.667 143.405H221.993C225.421 143.405 228.752 142.264 231.459 140.161C234.167 138.059 236.098 135.114 236.947 131.793Z" fill="#FFB7D5"/>
<path d="M251.154 143.405H192.667L193.653 139.479H219.327L229.117 101.188C230.451 95.9724 233.483 91.3488 237.736 88.0469C241.988 84.7449 247.219 82.9525 252.603 82.9523C265.777 82.9523 275.418 95.3701 272.155 108.133L266.105 131.791C265.256 135.112 263.326 138.057 260.619 140.16C257.912 142.263 254.582 143.404 251.154 143.405Z" fill="#FFB7D5"/>
<path d="M194.259 139.097H225.374" stroke="#A15842" stroke-width="0.985738" stroke-linecap="round" stroke-linejoin="round"/>
<path d="M219.44 138.955L224.891 117.635" stroke="#A15842" stroke-width="0.985738" stroke-linecap="round" stroke-linejoin="round"/>
<path d="M176.546 33.3253C174.912 29.168 171.95 24.3625 170.34 25.7401C169.951 26.0752 169.717 26.6445 169.601 27.3764C169.288 29.4391 169.946 32.798 170.794 35.8537L168.251 36.9652C168.234 37.042 168.213 37.1177 168.187 37.1919C167.721 38.567 166.19 38.7075 166.19 38.7075C166.19 38.7075 167.987 39.8213 167.188 41.6474C166.39 43.4735 163.795 42.8796 163.795 42.8796C165.466 44.6638 165.237 45.9255 164.17 46.7806C163.952 46.9374 163.697 47.0358 163.43 47.0665C163.502 49.314 163.645 51.8868 163.906 54.5877L180.989 49.1661C179.579 43.3256 177.827 36.5857 176.546 33.3253Z" fill="#A15842"/>
<path d="M170.422 36.3442C170.584 36.8592 170.732 37.2978 170.799 37.463C170.799 37.463 169.421 40.6814 170.109 44.129" stroke="#30242A" stroke-width="0.985738" stroke-linecap="round" stroke-linejoin="round"/>
<path d="M164.17 46.7905C165.237 45.9354 165.466 44.6736 163.795 42.8894C163.795 42.8894 166.39 43.476 167.188 41.6573C167.987 39.8386 166.19 38.7173 166.19 38.7173C166.19 38.7173 168.098 38.5497 168.302 36.6842" stroke="#30242A" stroke-width="1.97148" stroke-linecap="round" stroke-linejoin="round"/>
<path d="M166.518 34.0252C166.518 34.0252 168.344 33.483 168.049 32.1178C167.425 29.2197 162.962 29.1606 161.962 28.8698L160.754 26.2009C160.702 26.2009 158.475 26.5508 157.575 27.9432C156.165 30.1266 157.883 31.6915 157.883 31.6915C157.883 31.6915 154.408 32.8793 156.175 36.1569C156.175 36.1569 154.182 38.6508 156.668 40.6444C156.668 40.6444 154.785 42.3251 157.242 44.5874C159.276 46.4652 161.986 47.3154 163.438 47.069C163.705 47.0383 163.959 46.9399 164.177 46.7831C165.244 45.928 165.473 44.6662 163.803 42.8821C163.803 42.8821 166.397 43.4686 167.196 41.6499C167.994 39.8312 166.198 38.7099 166.198 38.7099C166.198 38.7099 167.728 38.5695 168.194 37.1943C168.22 37.1202 168.241 37.0445 168.258 36.9676C168.281 36.8718 168.298 36.7747 168.31 36.6768C168.49 34.9937 166.518 34.0252 166.518 34.0252Z" fill="#A15842"/>
<path d="M166.639 33.9932C164.059 33.7467 160.409 33.1282 157.669 31.6594" stroke="#30242A" stroke-width="0.985738" stroke-linecap="round" stroke-linejoin="round"/>
<path d="M166.915 39.2324C164.382 39.0352 160.148 38.2787 156.37 36.5216" stroke="#30242A" stroke-width="0.985738" stroke-linecap="round" stroke-linejoin="round"/>
<path d="M164.968 43.5745C163.401 43.232 159.332 42.2709 156.634 41.0313" stroke="#30242A" stroke-width="0.985738" stroke-linecap="round" stroke-linejoin="round"/>
<path d="M248.943 72.1683C248.949 71.8205 248.938 71.4726 248.909 71.1259L248.519 68.9376C246.957 63.4199 241.518 59.2281 239.52 52.631L232.701 52.6975V52.5694L223.878 56.5394L220.453 49.3805H220.391L217.227 56.5394L213.587 52.6704V52.6975C213.587 52.6975 202.525 53.0918 183.448 59.7554C183.448 59.7554 182.384 54.8883 181.004 49.1858L163.921 54.6074C164.929 64.9946 167.721 77.2449 175.173 79.9902C183.907 83.2061 205.053 77.0009 205.053 77.0009L208.04 100.673H247.341V96.2992C247.341 96.2992 250.56 94.6974 250.56 91.0132C250.552 84.3496 248.712 83.4304 248.943 72.1683Z" fill="#3EC1F3"/>
<path d="M220.389 49.3805H214.013L213.585 52.6704L217.224 56.5394L220.389 49.3805Z" fill="#F5EBDD"/>
<path d="M220.465 49.3805L223.891 56.5394L232.713 52.5694C232.747 52.2047 232.858 51.0908 233.006 49.5161V49.3805H220.465Z" fill="#F5EBDD"/>
<path d="M203.666 69.6399L204.536 76.72" stroke="#4756DF" stroke-width="0.985738" stroke-linecap="round" stroke-linejoin="round"/>
<path d="M220.33 64.1247C221.409 64.1247 222.284 63.2498 222.284 62.1705C222.284 61.0912 221.409 60.2163 220.33 60.2163C219.25 60.2163 218.375 61.0912 218.375 62.1705C218.375 63.2498 219.25 64.1247 220.33 64.1247Z" fill="#30242A"/>
<path d="M169.305 60.9063C170.385 60.9063 171.26 60.0313 171.26 58.952C171.26 57.8728 170.385 56.9978 169.305 56.9978C168.226 56.9978 167.351 57.8728 167.351 58.952C167.351 60.0313 168.226 60.9063 169.305 60.9063Z" fill="#30242A"/>
<path d="M183.934 59.8737L184.818 64.1222" stroke="#4756DF" stroke-width="0.985738" stroke-linecap="round" stroke-linejoin="round"/>
<path d="M220.391 49.3805H220.468L220.445 49.3337H233.013V49.3805H233.031C233.134 48.2691 233.26 46.9433 233.393 45.5115C231.234 44.787 225.84 42.6233 223.947 38.6261C227.134 37.564 230.847 33.0493 228.196 29.3306C224.677 24.4019 218.637 30.925 218.637 30.925C218.637 30.925 214.918 28.5346 213.06 23.4901C212.264 23.7538 209.873 24.02 208.015 23.4901C208.015 23.4901 207.217 25.6144 206.687 29.3306C206.613 29.8432 206.531 30.3361 206.44 30.8092C206.44 30.8092 204.033 30.6638 203.769 31.726C203.439 33.0395 205.546 34.4367 205.546 34.4367C204.72 37.394 204.035 39.6833 205.095 42.335C206.031 44.6736 208.018 47.3795 214.39 46.5835L214.033 49.3263H220.421L220.391 49.3805Z" fill="#A15842"/>
<path d="M213.05 23.4901C214.908 28.5346 218.627 30.9251 218.627 30.9251C218.627 30.9251 224.667 24.4044 228.186 29.3306C230.84 33.0493 227.124 37.564 223.937 38.6261C225.83 42.6233 231.224 44.787 233.383 45.5115C233.849 40.4473 234.411 34.0351 234.559 30.9251C234.805 25.8559 234.312 18.421 226.062 14.7269C218.361 11.2768 211.192 16.585 211.192 16.585C211.192 16.585 204.644 14.6998 204.292 18.9755C204.026 22.1618 208.01 23.4901 208.01 23.4901C209.864 24.02 212.259 23.7538 213.05 23.4901Z" fill="#EAA58B"/>
<path d="M214.553 47.069C215.82 46.8496 217.594 46.3839 219.024 45.4031" stroke="#30242A" stroke-width="0.985738" stroke-miterlimit="10" stroke-linecap="round"/>
<path d="M207.697 36.8912C208.139 37.1648 209.782 37.3841 210.45 36.1125" stroke="#30242A" stroke-width="0.985738" stroke-miterlimit="10" stroke-linecap="round"/>
<path d="M210.926 30.6663C211.369 30.6663 211.729 30.3066 211.729 29.8629C211.729 29.4192 211.369 29.0596 210.926 29.0596C210.482 29.0596 210.122 29.4192 210.122 29.8629C210.122 30.3066 210.482 30.6663 210.926 30.6663Z" fill="#30242A"/>
<path d="M224.733 32.517L221.813 34.3751" stroke="#30242A" stroke-width="0.985738" stroke-miterlimit="10" stroke-linecap="round"/>
<path d="M208.033 100.666C208.033 100.666 188.266 108.022 180.925 111.928C168.164 118.707 166.609 122.33 158.746 146.205C156.119 154.12 154.347 160.572 152.674 165.604L173.924 175.316L173.951 175.262L177.401 176.876C177.401 176.876 182.968 169.626 183.86 161.419C185.013 150.823 184.323 143.659 189.166 139.507L245.219 100.659L208.033 100.666Z" fill="#30242A"/>
<path d="M149.246 173.847L153.881 176.008C157.085 177.507 156.838 179.673 156.459 180.508C156.109 181.167 155.724 181.806 155.305 182.423L166.863 187.887C169.453 183.835 171.811 179.638 173.923 175.318L152.673 165.604C151.555 168.987 150.485 171.725 149.246 173.847Z" fill="#A15842"/>
<path d="M153.881 176.008L149.246 173.847C148.013 175.944 146.633 177.438 144.866 178.342C143.543 178.996 142.092 179.351 140.615 179.382C140.229 179.397 139.856 179.421 139.489 179.446C140.475 181.211 140.924 183.914 140.924 183.914C143.664 184.653 146.949 183.732 149.302 182.788C150.189 182.43 150.941 182.068 151.476 181.802C151.848 181.61 152.259 181.507 152.677 181.499C153.095 181.491 153.51 181.58 153.888 181.758L155.318 182.433C155.736 181.816 156.121 181.177 156.471 180.518C156.846 179.673 157.097 177.507 153.881 176.008Z" fill="#FF7235"/>
<path d="M155.305 182.423L153.876 181.748C153.497 181.57 153.083 181.481 152.665 181.489C152.246 181.497 151.835 181.6 151.464 181.792C150.929 182.068 150.177 182.43 149.29 182.778C146.949 183.722 143.664 184.646 140.911 183.904C140.911 183.904 140.463 181.193 139.477 179.436C139.231 179.454 139.011 179.473 138.785 179.495C134.327 179.922 131.675 181.129 130.098 182.926L160.283 196.997C161.538 195.477 163.312 193.187 165.377 190.139C165.87 189.427 166.363 188.68 166.856 187.887L155.305 182.423Z" fill="#30242A"/>
<path d="M128.634 185.444L158.31 199.245C158.31 199.245 159.049 198.486 160.281 196.985L130.098 182.926C129.453 183.664 128.957 184.519 128.634 185.444Z" fill="#FF7235"/>
<path d="M231.136 100.666C231.136 100.666 206.938 107.295 195.201 114.466C183.015 121.901 182.879 127.964 184.658 147.863" stroke="black" stroke-width="0.985738" stroke-linecap="round" stroke-linejoin="round"/>
<path d="M225.313 139.531L224.396 143.141" stroke="#A15842" stroke-width="0.985738" stroke-linecap="round" stroke-linejoin="round"/>
<path d="M269.797 116.839H254.397" stroke="#A15842" stroke-width="0.985738" stroke-linecap="round" stroke-linejoin="round"/>
<path d="M88.64 179.646V183.798H125.916V179.646H88.64Z" fill="#A15842"/>
<path d="M82.5014 198.806L92.1961 141.096H122.362L132.057 198.806C132.101 199.08 132.085 199.359 132.01 199.626C131.935 199.893 131.803 200.14 131.624 200.351C131.444 200.562 131.221 200.731 130.969 200.848C130.718 200.964 130.444 201.024 130.167 201.024C129.73 201.024 129.306 200.875 128.966 200.601C128.626 200.327 128.39 199.945 128.296 199.518L115.602 141.096H98.9558L86.262 199.531C86.1687 199.957 85.9323 200.339 85.5921 200.613C85.2519 200.887 84.8283 201.036 84.3915 201.036C84.1133 201.036 83.8383 200.976 83.5857 200.859C83.3332 200.742 83.1092 200.572 82.9293 200.359C82.7493 200.147 82.6179 199.898 82.544 199.63C82.4701 199.362 82.4555 199.081 82.5014 198.806Z" fill="#A15842"/>
<path d="M57.7593 179.646V183.798H95.035V179.646H57.7593Z" fill="#CA7358"/>
<path d="M51.6206 198.806L61.3153 141.096H91.4814L101.176 198.806C101.22 199.08 101.204 199.359 101.129 199.626C101.054 199.893 100.922 200.14 100.743 200.351C100.563 200.562 100.34 200.731 100.088 200.848C99.8367 200.964 99.563 201.024 99.2859 201.024C98.8492 201.024 98.4256 200.875 98.0854 200.601C97.7452 200.327 97.5088 199.945 97.4155 199.518L84.7216 141.096H68.075L55.3812 199.531C55.2879 199.957 55.0515 200.339 54.7113 200.613C54.3711 200.887 53.9475 201.036 53.5107 201.036C53.2325 201.036 52.9575 200.976 52.7049 200.859C52.4524 200.742 52.2284 200.572 52.0485 200.359C51.8686 200.147 51.7371 199.898 51.6632 199.63C51.5893 199.362 51.5747 199.081 51.6206 198.806Z" fill="#CA7358"/>
<path d="M82.0898 131.793L78.3932 117.332H102.901C107.705 117.332 112.373 118.93 116.169 121.875C119.964 124.819 122.672 128.943 123.865 133.597L126.369 143.393H97.0434C93.6168 143.394 90.2872 142.255 87.5797 140.154C84.8722 138.054 82.9407 135.112 82.0898 131.793Z" fill="#3EC1F3"/>
<path d="M67.8804 143.405H126.367L125.381 139.479H99.7074L89.9141 101.188C88.5803 95.9724 85.5481 91.3488 81.2957 88.0469C77.0433 84.7449 71.8127 82.9525 66.4289 82.9523C53.2545 82.9523 43.614 95.3701 46.8768 108.133L52.9292 131.791C53.7768 135.112 55.7066 138.057 58.414 140.161C61.1214 142.264 64.4521 143.405 67.8804 143.405Z" fill="#3EC1F3"/>
<path d="M124.775 139.097H93.6598" stroke="#4756DF" stroke-width="0.985738" stroke-miterlimit="10" stroke-linecap="round"/>
<path d="M99.5965 138.955L94.1429 117.635" stroke="#4756DF" stroke-width="0.985738" stroke-miterlimit="10" stroke-linecap="round"/>
<path d="M93.8422 140.029L94.6382 143.141" stroke="#4756DF" stroke-width="0.985738" stroke-linecap="round" stroke-linejoin="round"/>
<path d="M49.2376 116.839H64.6373" stroke="#4756DF" stroke-width="0.985738" stroke-linecap="round" stroke-linejoin="round"/>
<path d="M89.4064 192.771L89.0959 193.486L5.04944 194.518C4.38634 194.518 3.72973 194.649 3.1171 194.902C2.50448 195.156 1.94783 195.528 1.47895 195.997C1.01006 196.466 0.638128 197.023 0.384369 197.635C0.130611 198.248 0 198.904 0 199.568V201.275H85.7296H104.116C106.642 198.976 95.38 194.838 89.4064 192.771Z" fill="#EAA58B"/>
<path d="M2.98926 201.029V199.205" stroke="#A15842" stroke-width="0.985738" stroke-linecap="round" stroke-linejoin="round"/>
<path d="M5.28598 201.029V199.205" stroke="#A15842" stroke-width="0.985738" stroke-linecap="round" stroke-linejoin="round"/>
<path d="M35.6245 195.997C34.5304 190.964 33.3302 175.185 33.2169 173.677C33.0246 173.677 32.8324 173.692 32.6377 173.704C25.5109 174.163 21.144 183.357 19.9957 185.425C19.9957 185.425 15.7447 186.553 12.4646 188.064C12.9607 188.301 13.3445 188.723 13.5342 189.239C14.0048 190.624 12.7653 192.298 10.7667 192.975C10.1706 193.182 9.5417 193.278 8.91104 193.259C9.81546 198.394 14.3326 201.283 23.9041 201.283H40.4941C39.1017 200.955 36.4575 199.829 35.6245 195.997Z" fill="#EAA58B"/>
<path d="M89.229 182.016C87.5606 184.114 81.8113 186.001 79.7535 181.058C75.5937 183.246 65.8054 181.058 66.6703 171.311C56.5665 173.307 46.512 179.567 45.9896 179.895C48.9123 185.099 52.1504 190.984 52.8626 192.781C54.1096 195.898 54.0406 200.445 51.0883 201.283H88.9455C91.0131 194.341 91.405 187.537 89.229 182.016Z" fill="#EAA58B"/>
<path d="M79.7535 181.058C81.8113 186.001 87.5606 184.114 89.2289 182.016C87.5039 177.659 84.2017 174.094 78.8343 171.866C75.2635 170.387 70.9657 170.461 66.6703 171.311C65.8053 181.058 75.5937 183.246 79.7535 181.058Z" fill="#30242A"/>
<path d="M10.7667 192.975C12.7653 192.298 14.0049 190.624 13.5342 189.239C13.3446 188.723 12.9608 188.301 12.4647 188.064C10.4069 189.01 8.73364 190.107 8.73364 191.171C8.73213 191.871 8.7915 192.569 8.91107 193.259C9.54173 193.278 10.1706 193.182 10.7667 192.975Z" fill="#30242A"/>
<path d="M24.1333 201.036V199.575C24.1333 198.912 24.2638 198.256 24.5175 197.644C24.7711 197.031 25.1428 196.475 25.6115 196.006C26.0802 195.538 26.6365 195.166 27.2489 194.912C27.8612 194.658 28.5175 194.528 29.1802 194.528H36.7975" stroke="#A15842" stroke-width="0.985738" stroke-linecap="round" stroke-linejoin="round"/>
<path d="M27.1201 201.036V199.215" stroke="#A15842" stroke-width="0.985738" stroke-linecap="round" stroke-linejoin="round"/>
<path d="M29.4194 201.036V199.215" stroke="#A15842" stroke-width="0.985738" stroke-linecap="round" stroke-linejoin="round"/>
<path d="M60.9062 201.036V199.215" stroke="#A15842" stroke-width="0.985738" stroke-linecap="round" stroke-linejoin="round"/>
<path d="M63.2055 201.036V199.215" stroke="#A15842" stroke-width="0.985738" stroke-linecap="round" stroke-linejoin="round"/>
<path d="M57.6879 201.036V199.575C57.6879 198.912 57.8185 198.255 58.0723 197.643C58.3261 197.03 58.6981 196.474 59.167 196.005C59.6359 195.537 60.1926 195.165 60.8052 194.911C61.4178 194.658 62.0743 194.528 62.7373 194.528H71.1161" stroke="#A15842" stroke-width="0.985738" stroke-linecap="round" stroke-linejoin="round"/>
<path d="M60.6771 181.977C60.2162 184.276 61.1354 191.171 65.2731 194.387" stroke="#A15842" stroke-width="0.985738" stroke-linecap="round" stroke-linejoin="round"/>
<path d="M17.694 200.844C12.8244 200.006 10.02 197.971 8.8667 194.93" stroke="#A15842" stroke-width="0.985738" stroke-linecap="round" stroke-linejoin="round"/>
<path d="M91.0132 193.574C90.7406 196.078 90.2457 198.552 89.5345 200.967" stroke="#A15842" stroke-width="0.985738" stroke-linecap="round" stroke-linejoin="round"/>
<path d="M26.6617 186.344C27.8029 187.36 29.2716 187.931 30.7993 187.953" stroke="#A15842" stroke-width="0.985738" stroke-linecap="round" stroke-linejoin="round"/>
<path d="M52.8626 192.781C52.1406 190.979 48.9197 185.099 45.9896 179.895L45.9674 179.909C43.2862 177.004 39.9495 173.448 33.2169 173.677C33.3302 175.185 34.5304 190.965 35.6246 195.997C36.4575 199.829 39.1017 200.955 40.4941 201.283H51.0908C54.048 200.445 54.1096 195.898 52.8626 192.781Z" fill="#30242A"/>
<path d="M15.6288 166.274L19.4116 163.963L17.7309 169.848L22.1791 167.203" stroke="#A15842" stroke-width="0.985738" stroke-linecap="round" stroke-linejoin="round"/>
<path d="M22.9726 154.891L26.9574 154.574L23.2092 158.622L27.6943 158.309" stroke="#A15842" stroke-width="0.985738" stroke-linecap="round" stroke-linejoin="round"/>
<path d="M220.33 64.1247C221.409 64.1247 222.284 63.2498 222.284 62.1705C222.284 61.0912 221.409 60.2163 220.33 60.2163C219.25 60.2163 218.375 61.0912 218.375 62.1705C218.375 63.2498 219.25 64.1247 220.33 64.1247Z" fill="#30242A"/>
<path d="M248.519 68.9376L248.909 71.1259C248.852 70.3854 248.721 69.6523 248.519 68.9376Z" fill="#A15842"/>
<path d="M233.006 49.5161L233.021 49.3805H233.004L233.006 49.5161Z" fill="#3EC1F3"/>
<path d="M214.021 49.3337H213.981L213.977 49.3803H214.013L214.021 49.3337Z" fill="#F5EBDD"/>
<path d="M220.389 49.3805L220.409 49.3337H214.021L214.014 49.3805H220.389Z" fill="#F5EBDD"/>
<path d="M213.977 49.3805L213.548 52.631L213.585 52.6704L214.013 49.3805H213.977Z" fill="#F5EBDD"/>
<path d="M233.001 49.3337H220.443L220.465 49.3805H233.004L233.001 49.3337Z" fill="#F5EBDD"/>
<path d="M83.6152 22.4748C89.8214 22.4748 94.8526 17.4437 94.8526 11.2374C94.8526 5.03116 89.8214 0 83.6152 0C77.4089 0 72.3778 5.03116 72.3778 11.2374C72.3778 17.4437 77.4089 22.4748 83.6152 22.4748Z" fill="#30242A"/>
<path d="M91.3754 18.729C90.6879 19.0445 96.4594 5.3501 99.4018 7.48915C102.174 9.50745 94.8526 17.1247 91.3754 18.729Z" fill="#3EC1F3"/>
<path d="M91.055 19.5669C90.4266 20.3185 75.7071 15.1705 77.7476 12.1985C79.6993 9.33987 91.6834 18.8153 91.055 19.5669Z" fill="#3EC1F3"/>
<path d="M111.359 26.5977C109.222 26.9575 106.092 26.2231 106.092 26.2231C101.809 31.0384 97.2602 32.1079 97.2602 32.1079C94.3178 28.9043 88.9653 28.9043 88.1643 33.4461C87.2747 38.4807 93.5144 39.8682 93.5144 39.8682C93.5144 39.8682 94.3991 46.1621 91.9915 49.3731C91.6538 49.8216 91.3434 50.2159 91.0328 50.5634H102.968L102.613 48.4318C102.613 48.4318 106.359 49.7699 109.57 47.897C112.781 46.0241 113.584 42.5444 112.512 37.1919C111.879 34.0227 111.901 30.102 111.359 26.5977Z" fill="#EAA58B"/>
<path d="M107.367 94.69C102.081 97.6792 99.3205 103.424 99.3205 103.424H117.707L112.239 92.4573C110.06 93.3986 108.017 94.3154 107.367 94.69Z" fill="#FF7235"/>
<path d="M81.6487 53.6044C73.5755 54.5014 70.5985 57.365 64.7211 64.418C63.2696 66.1602 61.0245 69.1273 59.6199 70.9805L59.6642 71.0175C59.6642 71.0175 49.4397 83.6965 49.9104 93.337L64.2504 97.3416L74.0388 84.5861L76.7988 93.0906C76.7988 93.0906 70.5936 96.7674 67.146 103.441H99.3205C99.3205 103.441 102.081 97.6965 107.367 94.7072C108.022 94.3326 110.06 93.4208 112.239 92.4745L111.499 90.9959L113.794 83.8986L118.86 89.6356C118.86 89.6356 115.41 91.0822 112.241 92.4573L117.709 103.424H137.018C147.819 96.2992 139.543 83.4304 136.098 78.8319C133.725 75.6702 122.766 59.7554 115.183 55.6203C110.127 52.8626 103.419 53.2471 103.419 53.2471L102.97 50.5634H91.0329C89.3966 52.392 87.7183 52.9292 81.6487 53.6044Z" fill="#F5781E"/>
<path d="M118.845 89.123L122.995 87.5655" stroke="#A15842" stroke-width="0.985738" stroke-miterlimit="10" stroke-linecap="round"/>
<path d="M81.3825 91.1807C81.4466 86.6661 82.1908 75.229 87.8292 69.4058C94.0492 62.9985 108.054 64.3514 112.421 70.0958C116.788 75.8402 113.801 83.8961 113.801 83.8961L111.733 91.0205L117.707 103.431H64.1518L74.7238 93.7781L81.3825 91.1807Z" fill="#FFB7D5"/>
<path d="M81.3947 91.0132H111.716" stroke="#F5EBDD" stroke-width="0.985738" stroke-miterlimit="10" stroke-linecap="round"/>
<path d="M94.4952 81.3603H106.216" stroke="#F5EBDD" stroke-width="0.985738" stroke-miterlimit="10" stroke-linecap="round"/>
<path d="M116.1 90.784L122.074 104.584H110.582C108.286 104.584 105.296 104.584 105.528 103.433C103.687 104.813 100.7 104.584 100.93 103.433C97.9429 104.813 97.0237 103.894 96.7945 103.433C96.5653 102.973 99.5521 99.0666 106.216 95.3701C110.087 93.2459 116.1 90.784 116.1 90.784Z" fill="#EAA58B"/>
<path d="M99.5521 104.343C99.5521 104.343 103.002 100.893 110.582 96.76" stroke="#A15842" stroke-width="0.985738" stroke-miterlimit="10" stroke-linecap="round"/>
<path d="M112.653 99.2884C108.739 101.738 104.978 104.425 101.39 107.332" stroke="#A15842" stroke-width="0.985738" stroke-miterlimit="10" stroke-linecap="round"/>
<path d="M114.949 102.046C108.756 105.264 101.856 109.631 101.856 109.631" stroke="#A15842" stroke-width="0.985738" stroke-miterlimit="10" stroke-linecap="round"/>
<path d="M81.4426 53.2039L87.4766 50.9694C87.4909 50.9642 87.506 50.9617 87.5212 50.9623C87.5364 50.9629 87.5514 50.9665 87.5652 50.9728C87.579 50.9792 87.5914 50.9882 87.6018 50.9993C87.6121 51.0105 87.6202 51.0236 87.6254 51.0378L94.7635 70.3137C95.0706 71.143 95.0356 72.0603 94.6664 72.8638C94.2971 73.6674 93.6238 74.2913 92.7946 74.5984C91.9653 74.9055 91.048 74.8705 90.2445 74.5013C89.441 74.1321 88.817 73.4587 88.51 72.6295L81.3719 53.3536C81.3666 53.3391 81.3641 53.3237 81.3648 53.3083C81.3655 53.2929 81.3692 53.2778 81.3758 53.2639C81.3824 53.2499 81.3917 53.2374 81.4032 53.2271C81.4146 53.2168 81.4281 53.2089 81.4426 53.2039Z" fill="#A15842"/>
<path d="M107.96 75.4089C108.396 75.459 108.838 75.4227 109.259 75.302C109.681 75.1813 110.075 74.9786 110.418 74.7055C110.762 74.4324 111.048 74.0943 111.26 73.7106C111.473 73.3268 111.608 72.9049 111.657 72.469L113.648 54.8982C111.551 54.0828 109.349 53.5708 107.108 53.3777L105.023 71.7124C104.973 72.148 105.009 72.5893 105.13 73.0109C105.25 73.4325 105.453 73.8262 105.726 74.1695C105.998 74.5129 106.336 74.799 106.72 75.0117C107.103 75.2243 107.525 75.3593 107.96 75.4089Z" fill="#A15842"/>
<path d="M91.5725 73.1713C92.6518 73.1713 93.5267 72.2964 93.5267 71.2171C93.5267 70.1378 92.6518 69.2629 91.5725 69.2629C90.4932 69.2629 89.6183 70.1378 89.6183 71.2171C89.6183 72.2964 90.4932 73.1713 91.5725 73.1713Z" fill="#30242A"/>
<path d="M108.399 73.7775C109.478 73.7775 110.353 72.9026 110.353 71.8233C110.353 70.744 109.478 69.8691 108.399 69.8691C107.32 69.8691 106.445 70.744 106.445 71.8233C106.445 72.9026 107.32 73.7775 108.399 73.7775Z" fill="#30242A"/>
<path d="M70.771 54.0504L82.5875 50.5634H91.0328C91.3434 50.2159 91.6539 49.8241 91.9915 49.3731C94.3991 46.1695 93.5144 39.8682 93.5144 39.8682C93.5144 39.8682 87.2747 38.4807 88.1643 33.4461C88.9653 28.8994 94.3252 28.8994 97.2602 32.1079C97.2602 32.1079 101.809 31.0384 106.092 26.2231C106.092 26.2231 109.222 26.9624 111.359 26.5977C110.984 24.1851 110.343 21.9721 109.035 20.3358C105.831 16.3213 96.9941 13.6475 90.0372 18.7315C83.0804 23.8154 83.6152 32.1079 83.8764 35.319C83.8764 35.319 76.3848 32.9113 71.0347 38.5226C69.4862 40.1294 68.3584 42.0937 67.7514 44.241C67.1444 46.3883 67.0769 48.6523 67.555 50.832C67.555 50.832 57.6977 50.5536 55.7829 59.6618C54.7971 64.3268 56.3521 67.5822 58.3211 69.7409L59.5533 67.2322L70.771 54.0504Z" fill="#30242A"/>
<path d="M81.6486 53.6044C87.7208 52.9292 89.399 52.392 91.0353 50.5634H82.5875L70.771 54.0505L59.5484 67.2396L58.3162 69.7483C58.7174 70.1887 59.1489 70.6004 59.6075 70.9805C61.0024 69.1273 63.2572 66.1602 64.7087 64.418C70.5961 57.365 73.573 54.5014 81.6486 53.6044Z" fill="#30242A"/>
<path d="M102.421 48.9271C101.312 48.4858 100.231 47.9798 99.1825 47.4115" stroke="#A15842" stroke-width="0.985738" stroke-linecap="round" stroke-linejoin="round"/>
<path d="M67.1336 51.1351C67.5215 52.6085 68.0463 54.0424 68.7009 55.4182" stroke="black" stroke-width="0.985738" stroke-linecap="round" stroke-linejoin="round"/>
<path d="M83.3786 35.5506L84.15 39.602" stroke="black" stroke-width="0.985738" stroke-linecap="round" stroke-linejoin="round"/>
<path d="M74.4158 84.8153L79.7856 77.2227" stroke="#A15842" stroke-width="0.985738" stroke-miterlimit="10" stroke-linecap="round"/>
<path d="M93.5145 42.9461C95.0661 42.9461 96.3238 41.6883 96.3238 40.1368C96.3238 38.5852 95.0661 37.3274 93.5145 37.3274C91.9629 37.3274 90.7051 38.5852 90.7051 40.1368C90.7051 41.6883 91.9629 42.9461 93.5145 42.9461Z" fill="#F5EBDD"/>
<path d="M94.0493 35.319L91.9102 33.9833" stroke="#A15842" stroke-width="0.985738" stroke-linecap="round" stroke-linejoin="round"/>
<path d="M107.739 41.6006C107.295 41.8766 105.637 42.0935 104.966 40.8145" stroke="#A15842" stroke-width="0.985738" stroke-linecap="round" stroke-linejoin="round"/>
<path d="M103.379 35.5827C103.823 35.5827 104.183 35.223 104.183 34.7793C104.183 34.3356 103.823 33.9759 103.379 33.9759C102.936 33.9759 102.576 34.3356 102.576 34.7793C102.576 35.223 102.936 35.5827 103.379 35.5827Z" fill="#30242A"/>
<path d="M109.57 34.5181C110.013 34.5181 110.373 34.1584 110.373 33.7147C110.373 33.271 110.013 32.9113 109.57 32.9113C109.126 32.9113 108.766 33.271 108.766 33.7147C108.766 34.1584 109.126 34.5181 109.57 34.5181Z" fill="#30242A"/>
<path d="M107.428 35.8562C107.428 35.8562 108.167 37.6848 107.978 38.0495C107.852 38.2824 107.661 38.4734 107.428 38.599" stroke="#A15842" stroke-width="0.985738" stroke-linecap="round" stroke-linejoin="round"/>
<path d="M148.859 198.574H144.457C144.765 199.443 144.894 200.365 144.837 201.285H163.416C163.746 197.64 161.323 193.665 154.347 190.494L154.201 190.425C152.287 191.862 150.567 194.24 148.859 198.574Z" fill="#3EC1F3"/>
<path d="M154.017 190.336C148.213 187.458 149.26 181.137 150.951 166.799C150.55 166.101 149.949 165.538 149.225 165.186C148.501 164.833 147.687 164.707 146.89 164.822C146.093 164.938 145.349 165.29 144.755 165.834C144.161 166.378 143.744 167.087 143.558 167.871C143.346 166.994 142.846 166.214 142.137 165.656C141.429 165.098 140.553 164.795 139.651 164.795C138.749 164.795 137.873 165.098 137.164 165.656C136.455 166.214 135.955 166.994 135.743 167.871C135.532 166.994 135.032 166.214 134.323 165.656C133.614 165.098 132.738 164.795 131.836 164.795C130.934 164.795 130.058 165.098 129.35 165.656C128.641 166.214 128.141 166.994 127.929 167.871C127.717 166.994 127.217 166.214 126.508 165.656C125.8 165.098 124.924 164.795 124.022 164.795C123.12 164.795 122.244 165.098 121.535 165.656C120.827 166.214 120.326 166.994 120.115 167.871C119.903 166.994 119.403 166.214 118.694 165.656C117.985 165.098 117.109 164.795 116.207 164.795C115.305 164.795 114.43 165.098 113.721 165.656C113.012 166.214 112.512 166.994 112.3 167.871C112.152 167.254 111.86 166.682 111.448 166.199C111.036 165.717 110.515 165.34 109.929 165.098C109.343 164.856 108.708 164.756 108.076 164.807C107.443 164.857 106.832 165.057 106.292 165.39C106.317 166.659 106.366 167.984 106.445 169.387C106.819 176.023 108.318 184.9 109.604 191.603C115.873 191.938 118.414 196.566 119.215 198.574H129.77C129.866 198.328 129.96 198.099 130.056 197.867L130.115 197.727C130.206 197.512 130.295 197.303 130.386 197.098C130.408 197.044 130.433 196.995 130.455 196.943C130.536 196.761 130.618 196.586 130.701 196.413L130.775 196.258C130.853 196.094 130.929 195.938 131.005 195.792L131.108 195.583L131.34 195.137L131.473 194.89C131.517 194.806 131.564 194.725 131.608 194.644C131.687 194.503 131.768 194.365 131.855 194.23C131.889 194.176 131.921 194.121 131.953 194.067C132.138 193.764 132.323 193.478 132.51 193.21L132.545 193.158C132.651 193.007 132.757 192.862 132.863 192.719C133.507 191.843 134.272 191.063 135.135 190.403C135.332 190.511 135.536 190.615 135.753 190.713C140.887 193.044 143.553 195.817 144.475 198.565H148.859C150.567 194.23 152.287 191.852 154.199 190.412L154.017 190.336Z" fill="#F5EBDD"/>
<path d="M144.457 198.574H144.475C143.553 195.827 140.887 193.054 135.753 190.723C135.536 190.624 135.332 190.521 135.135 190.412C134.3 191.051 133.557 191.802 132.929 192.645L132.885 192.704L132.865 192.729C132.759 192.872 132.653 193.017 132.547 193.168L132.513 193.219C132.325 193.488 132.141 193.774 131.956 194.077C131.924 194.131 131.892 194.185 131.857 194.24C131.778 194.375 131.697 194.513 131.611 194.654C131.566 194.732 131.52 194.814 131.475 194.9L131.342 195.146L131.11 195.593L131.007 195.802C130.931 195.951 130.855 196.107 130.778 196.268L130.704 196.423C130.625 196.596 130.544 196.77 130.457 196.953C130.435 197.005 130.411 197.054 130.388 197.108C130.297 197.313 130.209 197.522 130.117 197.737L130.058 197.877C129.962 198.109 129.868 198.343 129.772 198.584H119.227C118.417 196.576 115.876 191.948 109.616 191.613C110.688 197.209 111.615 201.293 111.615 201.293H144.837C144.895 200.37 144.766 199.446 144.457 198.574Z" fill="#3EC1F3"/>
<path d="M72.8904 114.04V109.851H65.0341C64.379 113.594 64.5336 117.434 65.4875 121.113H65.8079C67.6846 121.113 69.4845 120.368 70.8125 119.042C72.1404 117.716 72.8878 115.917 72.8904 114.04Z" fill="#A15842"/>
<path d="M143.085 114.895L142.71 114.683C140.088 114.582 136.875 114.836 132.988 115.711L132.927 115.726C132.614 115.795 132.296 115.871 131.973 115.95L131.793 115.994C131.483 116.071 131.17 116.152 130.852 116.241L130.662 116.29C130.315 116.384 129.965 116.485 129.607 116.588L129.499 116.618C129.1 116.736 128.693 116.864 128.281 116.987C113.932 121.485 107.566 132.759 105.651 139.748H109.895C108.628 145.643 106.028 151.897 106.292 165.39C106.832 165.056 107.444 164.855 108.077 164.804C108.71 164.753 109.346 164.852 109.932 165.095C110.519 165.337 111.04 165.715 111.453 166.197C111.865 166.68 112.157 167.254 112.305 167.871C112.517 166.994 113.017 166.214 113.726 165.656C114.434 165.098 115.31 164.795 116.212 164.795C117.114 164.795 117.99 165.098 118.699 165.656C119.408 166.214 119.908 166.994 120.12 167.871C120.331 166.994 120.831 166.214 121.54 165.656C122.249 165.098 123.125 164.795 124.027 164.795C124.929 164.795 125.805 165.098 126.513 165.656C127.222 166.214 127.722 166.994 127.934 167.871C128.146 166.994 128.646 166.214 129.355 165.656C130.063 165.098 130.939 164.795 131.841 164.795C132.743 164.795 133.619 165.098 134.328 165.656C135.036 166.214 135.537 166.994 135.748 167.871C135.96 166.994 136.46 166.214 137.169 165.656C137.878 165.098 138.754 164.795 139.656 164.795C140.558 164.795 141.433 165.098 142.142 165.656C142.851 166.214 143.351 166.994 143.563 167.871C143.749 167.087 144.166 166.378 144.76 165.834C145.354 165.29 146.098 164.938 146.895 164.822C147.692 164.707 148.505 164.833 149.23 165.186C149.954 165.538 150.555 166.1 150.956 166.799C151.358 163.386 151.796 159.519 152.188 155.138C154.445 129.797 156.165 122.365 143.085 114.895Z" fill="#EAA58B"/>
<path d="M144.849 201.113C144.972 197.586 142.479 193.779 135.753 190.723C128.141 187.273 131.527 178.502 133.592 155.367C135.899 129.531 137.646 122.31 123.71 114.686C111.529 108.032 99.1184 103.655 99.1184 103.655" stroke="#30242A" stroke-width="0.985738" stroke-miterlimit="10" stroke-linecap="round"/>
<path d="M128.281 116.985C113.291 121.694 107.48 132.789 105.641 139.746C107.566 132.762 113.932 121.492 128.281 116.985Z" fill="#A15842"/>
<path d="M120.006 114.917C125.152 112.494 130.792 111.303 136.478 111.438C130.368 108.434 124.102 105.759 117.707 103.424H67.146C67.146 103.424 65.7659 105.723 65.0537 109.737C65.0537 109.779 65.0414 109.819 65.034 109.86H72.8904V114.05C72.8904 114.98 72.7072 115.901 72.3512 116.76C71.9953 117.62 71.4736 118.4 70.8159 119.058C70.1583 119.716 69.3775 120.237 68.5182 120.593C67.6589 120.949 66.7379 121.132 65.8078 121.132H65.4875C68.2401 131.69 77.4346 139.755 89.2216 139.755H99.2712C101.314 132.19 105.868 121.556 120.006 114.917Z" fill="#FFB7D5"/>
<path d="M128.281 116.985C134.361 115.075 139.097 114.545 142.71 114.683L142.301 114.456C140.349 113.389 138.39 112.379 136.478 111.438C130.791 111.303 125.152 112.494 120.006 114.917C105.868 121.556 101.314 132.19 99.2711 139.746H105.641C107.48 132.789 113.291 121.694 128.281 116.985Z" fill="#A15842"/>
<path d="M110.235 140.381H115.691" stroke="#A15842" stroke-width="0.985738" stroke-linecap="round" stroke-linejoin="round"/>
<path d="M130.731 89.8648V101.585" stroke="#30242A" stroke-width="0.985738" stroke-miterlimit="10" stroke-linecap="round"/>
<path d="M136.66 74.1768C136.66 74.1768 134.967 77.7747 130.731 77.7747C126.495 77.7747 124.817 74.1768 124.817 74.1768" stroke="#30242A" stroke-width="0.985738" stroke-linecap="round" stroke-linejoin="round"/>
<path d="M125.6 82.0503H135.864V83.1223C135.864 84.4837 135.323 85.7894 134.361 86.7521C133.398 87.7147 132.092 88.2556 130.731 88.2556C129.37 88.2556 128.064 87.7147 127.101 86.7521C126.139 85.7894 125.598 84.4837 125.598 83.1223V82.0503H125.6Z" fill="#4756DF"/>
<path d="M125.452 73.7751H136.012C136.164 73.7751 136.314 73.805 136.454 73.863C136.595 73.9211 136.722 74.0063 136.829 74.1136C136.937 74.2209 137.022 74.3483 137.08 74.4886C137.138 74.6288 137.168 74.7791 137.168 74.9308V83.1987C137.168 84.9052 136.49 86.5419 135.283 87.7485C134.077 88.9552 132.44 89.6331 130.733 89.6331V89.6331C129.888 89.6331 129.052 89.4667 128.271 89.1433C127.49 88.82 126.781 88.346 126.184 87.7485C125.586 87.151 125.112 86.4417 124.789 85.6611C124.465 84.8804 124.299 84.0437 124.299 83.1987V74.9308C124.299 74.6243 124.421 74.3303 124.638 74.1136C124.854 73.8968 125.148 73.7751 125.455 73.7751H125.452Z" stroke="#30242A" stroke-width="0.985738" stroke-miterlimit="10" stroke-linecap="round"/>
<path d="M130.731 100.437L125.6 103.424H135.864L130.731 100.437Z" fill="#30232A"/>
<path d="M191.847 89.8648V101.585" stroke="#30242A" stroke-width="0.985738" stroke-miterlimit="10" stroke-linecap="round"/>
<path d="M197.776 74.1768C197.776 74.1768 196.083 77.7747 191.847 77.7747C187.611 77.7747 185.932 74.1768 185.932 74.1768" stroke="#30242A" stroke-width="0.985738" stroke-linecap="round" stroke-linejoin="round"/>
<path d="M186.716 82.0503H196.98V83.1223C196.98 84.4837 196.439 85.7894 195.476 86.7521C194.514 87.7147 193.208 88.2556 191.847 88.2556C190.485 88.2556 189.18 87.7147 188.217 86.7521C187.254 85.7894 186.714 84.4837 186.714 83.1223V82.0503H186.716Z" fill="#4756DF"/>
<path d="M186.568 73.7751H197.128C197.28 73.7751 197.43 73.805 197.57 73.863C197.71 73.9211 197.838 74.0063 197.945 74.1136C198.052 74.2209 198.138 74.3483 198.196 74.4886C198.254 74.6288 198.284 74.7791 198.284 74.9308V83.1987C198.284 84.9052 197.606 86.5419 196.399 87.7485C195.192 88.9552 193.556 89.6331 191.849 89.6331V89.6331C190.143 89.6331 188.506 88.9552 187.299 87.7485C186.093 86.5419 185.415 84.9052 185.415 83.1987V74.9308C185.415 74.6243 185.537 74.3303 185.753 74.1136C185.97 73.8968 186.264 73.7751 186.571 73.7751H186.568Z" stroke="#30242A" stroke-width="0.985738" stroke-miterlimit="10" stroke-linecap="round"/>
<path d="M191.847 100.437L186.716 103.424H196.98L191.847 100.437Z" fill="#30232A"/>
<path d="M65.7659 88.7164C65.7659 88.7164 76.5696 87.8292 81.2297 87.6124" stroke="#A15842" stroke-width="0.985738" stroke-miterlimit="10" stroke-linecap="round"/>
<path d="M52.9366 131.793L49.2401 117.332H70.8056C75.6095 117.332 80.277 118.93 84.0726 121.875C87.8682 124.82 90.5761 128.944 91.7697 133.597L94.2735 143.393H67.8878C64.4616 143.393 61.1326 142.254 58.4256 140.154C55.7185 138.053 53.7874 135.112 52.9366 131.793Z" fill="#3EC1F3"/>
<path d="M247.492 96.2992H205.504V100.666H247.492V96.2992Z" fill="#F5EBDD"/>
<path d="M193.914 182.258H188.355C188.232 185.299 187.561 187.433 185.972 188.968C185.29 189.606 184.504 190.122 183.648 190.494C183.084 190.74 182.559 191.014 182.066 191.282C183.791 192.396 185.516 194.9 185.516 194.9C186.856 194.629 188.124 194.081 189.239 193.291C191.477 191.788 193.288 189.666 194.168 188.522C194.424 188.191 194.753 187.924 195.129 187.741C195.505 187.557 195.918 187.463 196.337 187.465H197.916C198.038 186.731 198.12 185.99 198.163 185.247C198.151 184.333 197.473 182.258 193.914 182.258Z" fill="#FF7235"/>
<path d="M197.914 187.47H196.334C195.916 187.468 195.503 187.562 195.127 187.746C194.751 187.929 194.422 188.196 194.166 188.527C193.281 189.671 191.47 191.793 189.237 193.296C188.121 194.086 186.853 194.634 185.513 194.905C185.513 194.905 183.788 192.401 182.063 191.287C181.881 191.383 181.706 191.482 181.533 191.581C177.8 193.734 176.215 196.172 175.742 198.582H208.316C208.843 196.844 209.276 195.08 209.615 193.296C209.933 191.657 210.241 189.745 210.499 187.542L197.914 187.47Z" fill="#30242A"/>
<path d="M175.626 201.283H207.311C207.711 200.405 208.046 199.499 208.314 198.572H175.745C175.577 199.465 175.537 200.378 175.626 201.283Z" fill="#FF7235"/>
<path d="M187.362 186.6L194.015 191.036" stroke="#F5EBDD" stroke-width="0.985738" stroke-miterlimit="10" stroke-linecap="round"/>
<path d="M184.897 189.311L190.072 194.24" stroke="#F5EBDD" stroke-width="0.985738" stroke-miterlimit="10" stroke-linecap="round"/>
<path d="M255.035 116.596C253.29 106.534 247.334 100.666 247.334 100.666H231.629C231.629 100.666 207.431 107.295 195.694 114.466C182.14 122.742 183.502 129.312 185.809 155.148C186.632 164.362 187.665 171.294 188.128 176.521H211.219C211.219 176.491 211.219 176.462 211.219 176.432H215.48C215.48 176.432 217.668 166.309 215.248 157.287C212.71 147.829 210.403 146.214 209.021 139.755H235.508C247.785 139.746 257.132 128.691 255.035 116.596Z" fill="#30242A"/>
<path d="M188.355 182.258H193.917C197.463 182.258 198.153 184.326 198.153 185.245C198.11 185.988 198.028 186.728 197.907 187.463L210.489 187.527C210.857 184.439 211.128 180.782 211.212 176.504H188.121C188.318 178.415 188.396 180.337 188.355 182.258Z" fill="#A15842"/>
<path d="M208.801 140.135H203.227" stroke="black" stroke-width="0.985738" stroke-linecap="round" stroke-linejoin="round"/>
<path d="M145.714 177.236L149.904 183.889" stroke="#F5EBDD" stroke-width="0.985738" stroke-miterlimit="10" stroke-linecap="round"/>
<path d="M142.757 178.714L145.468 185.368" stroke="#F5EBDD" stroke-width="0.985738" stroke-miterlimit="10" stroke-linecap="round"/>
<path d="M266.1 131.793L269.796 117.332H248.238C243.434 117.332 238.766 118.93 234.971 121.875C231.175 124.819 228.467 128.943 227.274 133.597L224.768 143.393H251.146C254.573 143.394 257.902 142.254 260.609 140.154C263.317 138.054 265.248 135.112 266.1 131.793Z" fill="#FFB7D5"/>
<path d="M235.843 103.424H82.5432C80.8936 103.424 79.5564 104.761 79.5564 106.41V106.413C79.5564 108.062 80.8936 109.4 82.5432 109.4H235.843C237.492 109.4 238.829 108.062 238.829 106.413V106.41C238.829 104.761 237.492 103.424 235.843 103.424Z" fill="#A15842"/>
<path d="M101.161 89.6356C99.0297 88.6671 93.5761 87.7972 88.2901 87.7972C87.2847 87.7972 86.2028 87.8144 85.0717 87.8465V102.746C87.6888 101.933 89.8451 101.164 91.2769 100.666C91.2769 100.666 101.8 108.705 103.675 105.028C103.675 105.028 106.42 106.137 107.125 103.424C107.125 103.424 110.344 103.424 109.195 101.127C108.421 99.5595 105.06 96.07 105.06 96.07C105.06 96.07 109.052 98.4777 111.036 96.9892C112.882 95.6166 103.687 90.784 101.161 89.6356Z" fill="#EAA58B"/>
<path d="M65.0759 89.1748L50.1371 89.8648C48.7595 97.2184 52.6014 104.804 59.0999 105.952C67.6487 107.46 78.0261 104.937 85.0716 102.748V87.8465C76.439 88.0978 65.0759 89.1748 65.0759 89.1748Z" fill="#FF7235"/>
<path d="M105.499 95.7964C103.69 94.3523 101.218 92.4104 99.5521 91.2423" stroke="#A15842" stroke-width="0.985738" stroke-miterlimit="10" stroke-linecap="round"/>
<path d="M96.7945 93.9679C101.312 97.1124 105.375 101.262 107.305 103.35" stroke="#A15842" stroke-width="0.985738" stroke-miterlimit="10" stroke-linecap="round"/>
<path d="M94.6702 97.2159C97.7063 99.4338 101.183 102.785 103.453 105.072" stroke="#A15842" stroke-width="0.985738" stroke-miterlimit="10" stroke-linecap="round"/>
<path d="M189.185 94.0024C184.131 96.5308 180.107 100.903 176.546 105.494C174.936 107.561 170.878 112.712 173.556 113.308C175.626 113.766 179.764 109.631 179.764 109.631C179.764 109.631 177.273 115.026 179.074 116.531C180.452 117.682 182.278 115.844 182.278 115.844C183.887 119.294 186.415 116.302 186.415 116.302C190.472 119.294 194.459 108.259 194.459 108.259C196.824 107.417 199.062 106.256 201.113 104.809C201.113 104.809 202.424 105.149 204.543 105.568L202.631 90.0668C197.631 90.991 192.655 92.2675 189.185 94.0024Z" fill="#A15842"/>
<path d="M178.99 110.319C179.73 108.372 181.033 105.075 182.194 102.849" stroke="#30242A" stroke-width="0.985738" stroke-miterlimit="10" stroke-linecap="round"/>
<path d="M186.428 104.343C184.505 108.485 183.098 113.025 182.315 115.841" stroke="#30242A" stroke-width="0.985738" stroke-miterlimit="10" stroke-linecap="round"/>
<path d="M190.794 105.72C189.34 109.047 187.862 113.55 186.933 116.544" stroke="#30242A" stroke-width="0.985738" stroke-miterlimit="10" stroke-linecap="round"/>
<path d="M233.543 103.424C241.511 96.7871 250.35 81.9567 251.24 65.5023C251.701 56.9978 245.035 52.631 239.98 52.631H238.134L221.818 87.7972C221.818 87.7972 212.145 88.3073 202.65 90.0619L204.563 105.563C211.416 106.92 226.71 109.119 233.543 103.424Z" fill="#3EC1F3"/>
<path d="M228.795 72.8115L222.069 87.3043" stroke="#4756DF" stroke-width="0.985738" stroke-linecap="round" stroke-linejoin="round"/>
<path d="M240.338 95.9418C241.905 93.7567 243.318 91.4641 244.564 89.0811C245.303 87.6715 246.006 86.2028 246.654 84.6823" stroke="#4756DF" stroke-width="0.985738" stroke-linecap="round" stroke-linejoin="round"/>
<path d="M206.958 88.8889C214.965 87.6789 219.398 87.5335 222.355 87.2871C224.327 87.1244 227.037 87.0406 227.037 87.0406" stroke="#4756DF" stroke-width="0.985738" stroke-linecap="round" stroke-linejoin="round"/>
<path d="M210.216 102.965C211.295 102.965 212.17 102.09 212.17 101.011C212.17 99.9317 211.295 99.0568 210.216 99.0568C209.137 99.0568 208.262 99.9317 208.262 101.011C208.262 102.09 209.137 102.965 210.216 102.965Z" fill="#30242A"/>
<path d="M204.703 106.033C202.648 105.624 201.384 105.294 201.384 105.294C199.333 106.742 197.095 107.902 194.73 108.744C194.73 108.744 194.592 109.129 194.338 109.73" stroke="#30242A" stroke-width="0.985738" stroke-miterlimit="10" stroke-linecap="round"/>
<path d="M173.396 109.185C174.216 107.907 175.103 106.673 176.053 105.489C176.523 104.882 177.001 104.282 177.489 103.687" stroke="#30242A" stroke-width="0.985738" stroke-miterlimit="10" stroke-linecap="round"/>
<path d="M163.78 21.3354C163.823 21.386 163.886 21.4587 163.951 21.5339L163.934 21.6334L163.999 21.5918C164.915 22.6523 167.72 25.7182 170.761 27.1608C173.462 28.4425 175.499 28.2541 175.998 27.0631C176.497 25.8721 175.264 24.1296 172.571 22.847C171.069 22.1329 169.327 21.7312 167.787 21.5029C170.517 21.531 174.083 21.3846 176.748 20.6096C180.352 19.5591 182.209 17.6467 181.815 16.0645C181.422 14.4823 178.922 13.834 175.319 14.881C172.974 15.5613 170.249 17.043 168.03 18.4133C169.044 17.4761 169.952 16.4137 170.733 15.2485C172.421 12.636 172.63 10.4602 171.631 9.72409C170.632 8.98799 168.801 9.96962 167.113 12.5821C165.233 15.492 164.315 19.6275 164.035 21.0916L163.868 21.2138C163.756 21.2129 163.691 21.2152 163.691 21.2152C163.691 21.2152 163.715 21.2435 163.759 21.2941L163.724 21.3285L163.78 21.3354Z" fill="#A15842"/>
<path d="M161.962 28.8698C162.962 29.1705 167.425 29.2197 168.048 32.1178C168.344 33.483 166.518 34.0252 166.518 34.0252C166.518 34.0252 168.49 34.9888 168.302 36.6768C168.291 36.7747 168.274 36.8718 168.251 36.9676L170.799 35.8538C169.951 32.798 169.293 29.4465 169.606 27.3764L166.582 20.7227L161.377 9.25935L154.323 12.7867L159.682 23.8598L160.747 26.2009L161.962 28.8698Z" fill="#F5781E"/>
<path d="M180.025 149.033C180.104 148.959 180.216 148.854 180.333 148.745L180.494 148.766L180.423 148.665C182.068 147.128 186.813 142.432 188.937 137.462C190.825 133.045 190.395 129.787 188.452 129.061C186.508 128.336 183.789 130.423 181.899 134.827C180.847 137.283 180.312 140.103 180.042 142.59C179.916 138.207 179.457 132.491 178.046 128.263C176.133 122.543 172.947 119.684 170.432 120.415C167.917 121.146 167.034 125.199 168.94 130.917C170.18 134.638 172.729 138.918 175.068 142.395C173.5 140.825 171.737 139.435 169.818 138.254C165.519 135.708 162.013 135.51 160.894 137.16C159.776 138.809 161.466 141.687 165.766 144.232C170.554 147.067 177.25 148.28 179.618 148.638L179.824 148.899C179.83 149.079 179.838 149.183 179.838 149.183C179.838 149.183 179.882 149.142 179.96 149.069L180.017 149.122L180.025 149.033Z" fill="#A15842"/>
<path d="M201.248 201.371L201.246 201.261L201.127 201.373L201.248 201.371Z" fill="#3EC1F3"/>
<path d="M191.841 201.236L201.01 192.578L200.962 183.83L182.478 201.279L191.841 201.236Z" fill="#BCBEC0"/>
<path d="M184.893 147.34L154.05 176.457L154.098 185.206L194.255 147.295L184.893 147.34Z" fill="#BCBEC0"/>
<path d="M153.894 147.489L154.004 167.954L175.793 147.383L153.894 147.489Z" fill="#BCBEC0"/>
<path d="M173.573 201.501L201.108 175.508L201.06 166.756L164.208 201.545L173.573 201.501Z" fill="#BCBEC0"/>
<path d="M201.013 158.255L200.965 149.507L154.142 193.708L154.186 201.592L155.111 201.589L201.013 158.255Z" fill="#BCBEC0"/>
<path d="M175.794 147.383L154.005 167.953L154.051 176.457L184.893 147.34L175.794 147.383Z" fill="#F5781E"/>
<path d="M200.953 147.265L194.254 147.296L154.097 185.206L154.141 193.708L200.965 149.507L200.953 147.265Z" fill="#F5781E"/>
<path d="M164.208 201.545L201.06 166.755L201.014 158.255L155.112 201.588L164.208 201.545Z" fill="#F5781E"/>
<path d="M200.936 201.194L201.054 201.083L201.008 192.579L191.84 201.236L200.936 201.194Z" fill="#F5781E"/>
<path d="M200.929 160.854L153.954 161.076" stroke="black" stroke-width="2.22086" stroke-linejoin="round"/>
<path d="M203.388 147.254L151.457 147.499L151.527 160.549L203.459 160.304L203.388 147.254Z" fill="#F5781E"/>
<path d="M182.657 201.251L201.141 183.801L201.096 175.301L173.561 201.294L182.657 201.251Z" fill="#F5781E"/>
<path d="M168.18 103.757L168.179 103.701L168.117 103.758L168.18 103.757Z" fill="#3EC1F3"/>
<path d="M163.279 103.687L168.056 99.1765L168.031 94.618L158.4 103.71L163.279 103.687Z" fill="#BCBEC0"/>
<path d="M152.404 82.4834L143.588 90.7765L143.613 95.335L157.223 82.4834L152.404 82.4834Z" fill="#BCBEC0"/>
<path d="M143.564 82.4581L143.564 86.5793L147.56 82.4914L143.564 82.4581Z" fill="#BCBEC0"/>
<path d="M153.761 103.825L168.107 90.2822L168.082 85.7219L148.881 103.849L153.761 103.825Z" fill="#BCBEC0"/>
<path d="M166.711 82.5961L161.98 82.4834L143.636 99.7652L143.659 103.873L144.141 103.871L166.711 82.5961Z" fill="#BCBEC0"/>
<path d="M147.56 82.4834L143.555 86.4153L143.579 90.8462L152.404 82.4834L147.56 82.4834Z" fill="#F5781E"/>
<path d="M159.614 82.5961L157.023 82.5961L143.613 95.3353L143.636 99.7653L161.867 82.5961L159.614 82.5961Z" fill="#F5781E"/>
<path d="M148.881 103.848L168.082 85.7217C168.073 83.9921 168.067 83.0223 168.058 81.2927L144.142 103.871L148.881 103.848Z" fill="#F5781E"/>
<path d="M168.018 103.665L168.079 103.608L168.055 99.1766L163.278 103.688L168.018 103.665Z" fill="#F5781E"/>
<path d="M168.176 82.0329L143.538 82.0867" stroke="black" stroke-width="6.61382" stroke-linejoin="round"/>
<path d="M158.494 103.695L168.125 94.6033L168.101 90.1743L153.754 103.717L158.494 103.695Z" fill="#F5781E"/>
</svg>
